<mxfile host="app.diagrams.net" agent="Mozilla/5.0 (Windows NT 10.0; Win64; x64) AppleWebKit/537.36 (KHTML, like Gecko) Chrome/131.0.0.0 Safari/537.36" version="24.7.7">
  <diagram name="1 oldal" id="_iiroc8i7VoigcSSuO7V">
    <mxGraphModel dx="1728" dy="983" grid="1" gridSize="10" guides="1" tooltips="1" connect="1" arrows="1" fold="1" page="1" pageScale="1" pageWidth="1169" pageHeight="827" math="0" shadow="0">
      <root>
        <mxCell id="0" />
        <mxCell id="1" parent="0" />
        <mxCell id="oeXIbe9gHz6qyUcopNLy-10" value="Pipeline" style="rounded=0;whiteSpace=wrap;html=1;verticalAlign=top;fillColor=#f5f5f5;strokeColor=#666666;fontSize=20;fontColor=#333333;" parent="1" vertex="1">
          <mxGeometry x="70" y="220" width="760" height="760" as="geometry" />
        </mxCell>
        <mxCell id="Tjgu17ZUk7AZ-zzFZU_f-12" value="Environments" style="rounded=0;whiteSpace=wrap;html=1;verticalAlign=top;fillColor=#dae8fc;strokeColor=#6c8ebf;fontSize=20;" vertex="1" parent="1">
          <mxGeometry x="480" y="660" width="340" height="260" as="geometry" />
        </mxCell>
        <mxCell id="oeXIbe9gHz6qyUcopNLy-25" value="Observability" style="rounded=0;whiteSpace=wrap;html=1;verticalAlign=top;fillColor=#dae8fc;strokeColor=#6c8ebf;fontSize=20;" parent="1" vertex="1">
          <mxGeometry x="850" y="220" width="310" height="760" as="geometry" />
        </mxCell>
        <mxCell id="FLTOR3fUIsVmwwGsozke-35" value="Artifact repository" style="rounded=0;whiteSpace=wrap;html=1;verticalAlign=top;fillColor=#f5f5f5;strokeColor=#666666;fontSize=20;fontColor=#333333;" parent="1" vertex="1">
          <mxGeometry x="70" y="1000" width="760" height="90" as="geometry" />
        </mxCell>
        <mxCell id="oeXIbe9gHz6qyUcopNLy-2" value="E2E API stage" style="rounded=1;whiteSpace=wrap;html=1;fillColor=#fff2cc;strokeColor=#d6b656;verticalAlign=top;" parent="1" vertex="1">
          <mxGeometry x="540" y="370" width="120" height="100" as="geometry" />
        </mxCell>
        <mxCell id="oeXIbe9gHz6qyUcopNLy-1" value="E2E UI stage" style="rounded=1;whiteSpace=wrap;html=1;fillColor=#fff2cc;strokeColor=#d6b656;verticalAlign=top;" parent="1" vertex="1">
          <mxGeometry x="540" y="260" width="120" height="100" as="geometry" />
        </mxCell>
        <mxCell id="oeXIbe9gHz6qyUcopNLy-21" style="edgeStyle=orthogonalEdgeStyle;rounded=0;orthogonalLoop=1;jettySize=auto;html=1;exitX=1.023;exitY=0.614;exitDx=0;exitDy=0;fontSize=20;exitPerimeter=0;" parent="1" source="FLTOR3fUIsVmwwGsozke-1" edge="1">
          <mxGeometry relative="1" as="geometry">
            <mxPoint x="510" y="420" as="targetPoint" />
          </mxGeometry>
        </mxCell>
        <mxCell id="FLTOR3fUIsVmwwGsozke-1" value="Commit stage" style="rounded=1;whiteSpace=wrap;html=1;verticalAlign=top;fillColor=#fff2cc;strokeColor=#d6b656;" parent="1" vertex="1">
          <mxGeometry x="110" y="260" width="120" height="260" as="geometry" />
        </mxCell>
        <mxCell id="FLTOR3fUIsVmwwGsozke-2" value="Unit test&lt;div&gt;Integration tests&lt;/div&gt;&lt;div&gt;Code quality&lt;br&gt;Package&lt;/div&gt;&lt;div&gt;Build image&lt;br&gt;Deploy to remote repo&lt;br&gt;Push to Docker repo&lt;/div&gt;&lt;div&gt;Documentation&lt;/div&gt;" style="rounded=1;whiteSpace=wrap;html=1;fillColor=#ffe6cc;strokeColor=#d79b00;" parent="1" vertex="1">
          <mxGeometry x="120" y="300" width="100" height="210" as="geometry" />
        </mxCell>
        <mxCell id="oeXIbe9gHz6qyUcopNLy-13" style="edgeStyle=orthogonalEdgeStyle;rounded=0;orthogonalLoop=1;jettySize=auto;html=1;exitX=1;exitY=0.5;exitDx=0;exitDy=0;entryX=0;entryY=0.5;entryDx=0;entryDy=0;fontSize=20;" parent="1" target="oeXIbe9gHz6qyUcopNLy-1" edge="1">
          <mxGeometry relative="1" as="geometry">
            <mxPoint x="490" y="580" as="sourcePoint" />
          </mxGeometry>
        </mxCell>
        <mxCell id="oeXIbe9gHz6qyUcopNLy-14" style="edgeStyle=orthogonalEdgeStyle;rounded=0;orthogonalLoop=1;jettySize=auto;html=1;exitX=1;exitY=0.5;exitDx=0;exitDy=0;entryX=0;entryY=0.5;entryDx=0;entryDy=0;fontSize=20;" parent="1" target="oeXIbe9gHz6qyUcopNLy-2" edge="1">
          <mxGeometry relative="1" as="geometry">
            <mxPoint x="490" y="580" as="sourcePoint" />
          </mxGeometry>
        </mxCell>
        <mxCell id="oeXIbe9gHz6qyUcopNLy-17" style="edgeStyle=orthogonalEdgeStyle;rounded=0;orthogonalLoop=1;jettySize=auto;html=1;exitX=1;exitY=0.5;exitDx=0;exitDy=0;entryX=0;entryY=0.5;entryDx=0;entryDy=0;fontSize=20;" parent="1" target="FLTOR3fUIsVmwwGsozke-46" edge="1">
          <mxGeometry relative="1" as="geometry">
            <mxPoint x="490" y="580" as="sourcePoint" />
          </mxGeometry>
        </mxCell>
        <mxCell id="oeXIbe9gHz6qyUcopNLy-18" style="edgeStyle=orthogonalEdgeStyle;rounded=0;orthogonalLoop=1;jettySize=auto;html=1;exitX=1;exitY=0.5;exitDx=0;exitDy=0;entryX=0;entryY=0.5;entryDx=0;entryDy=0;fontSize=20;" parent="1" target="oeXIbe9gHz6qyUcopNLy-5" edge="1">
          <mxGeometry relative="1" as="geometry">
            <mxPoint x="490" y="580" as="sourcePoint" />
          </mxGeometry>
        </mxCell>
        <mxCell id="FLTOR3fUIsVmwwGsozke-27" value="Requests" style="rounded=1;whiteSpace=wrap;html=1;fillColor=#d5e8d4;strokeColor=#82b366;" parent="1" vertex="1">
          <mxGeometry x="670" y="380" width="120" height="40" as="geometry" />
        </mxCell>
        <mxCell id="FLTOR3fUIsVmwwGsozke-28" value="GitHub Actions" style="rounded=1;whiteSpace=wrap;html=1;fillColor=#d5e8d4;strokeColor=#82b366;" parent="1" vertex="1">
          <mxGeometry x="90" y="930" width="730" height="30" as="geometry" />
        </mxCell>
        <mxCell id="FLTOR3fUIsVmwwGsozke-30" value="Nexus" style="rounded=1;whiteSpace=wrap;html=1;fillColor=#d5e8d4;strokeColor=#82b366;" parent="1" vertex="1">
          <mxGeometry x="540" y="1030" width="120" height="40" as="geometry" />
        </mxCell>
        <mxCell id="FLTOR3fUIsVmwwGsozke-32" value="Version control" style="rounded=0;whiteSpace=wrap;html=1;verticalAlign=top;fillColor=#f5f5f5;strokeColor=#666666;fontSize=20;fontColor=#333333;" parent="1" vertex="1">
          <mxGeometry x="70" y="130" width="760" height="70" as="geometry" />
        </mxCell>
        <mxCell id="FLTOR3fUIsVmwwGsozke-34" value="Git/GitHub" style="rounded=1;whiteSpace=wrap;html=1;fillColor=#d5e8d4;strokeColor=#82b366;" parent="1" vertex="1">
          <mxGeometry x="700" y="160" width="120" height="30" as="geometry" />
        </mxCell>
        <mxCell id="FLTOR3fUIsVmwwGsozke-37" value="SonarQube" style="rounded=1;whiteSpace=wrap;html=1;fillColor=#d5e8d4;strokeColor=#82b366;" parent="1" vertex="1">
          <mxGeometry x="250" y="700" width="120" height="40" as="geometry" />
        </mxCell>
        <mxCell id="FLTOR3fUIsVmwwGsozke-40" value="Docker" style="rounded=1;whiteSpace=wrap;html=1;fillColor=#d5e8d4;strokeColor=#82b366;" parent="1" vertex="1">
          <mxGeometry x="110" y="754" width="120" height="40" as="geometry" />
        </mxCell>
        <mxCell id="FLTOR3fUIsVmwwGsozke-41" value="E2E UI tests" style="rounded=1;whiteSpace=wrap;html=1;fillColor=#ffe6cc;strokeColor=#d79b00;" parent="1" vertex="1">
          <mxGeometry x="550" y="300" width="100" height="50" as="geometry" />
        </mxCell>
        <mxCell id="FLTOR3fUIsVmwwGsozke-42" value="Selenium" style="rounded=1;whiteSpace=wrap;html=1;fillColor=#d5e8d4;strokeColor=#82b366;" parent="1" vertex="1">
          <mxGeometry x="670" y="270" width="120" height="30" as="geometry" />
        </mxCell>
        <mxCell id="FLTOR3fUIsVmwwGsozke-43" value="Docker Compose" style="rounded=1;whiteSpace=wrap;html=1;fillColor=#d5e8d4;strokeColor=#82b366;" parent="1" vertex="1">
          <mxGeometry x="670" y="322" width="120" height="38" as="geometry" />
        </mxCell>
        <mxCell id="FLTOR3fUIsVmwwGsozke-45" value="E2E API tests" style="rounded=1;whiteSpace=wrap;html=1;fillColor=#ffe6cc;strokeColor=#d79b00;" parent="1" vertex="1">
          <mxGeometry x="550" y="410" width="100" height="50" as="geometry" />
        </mxCell>
        <mxCell id="FLTOR3fUIsVmwwGsozke-46" value="UAT stage" style="rounded=1;whiteSpace=wrap;html=1;fillColor=#fff2cc;strokeColor=#d6b656;verticalAlign=top;" parent="1" vertex="1">
          <mxGeometry x="540" y="700" width="120" height="100" as="geometry" />
        </mxCell>
        <mxCell id="FLTOR3fUIsVmwwGsozke-47" value="Configure environment&lt;br&gt;Deploy binaries" style="rounded=1;whiteSpace=wrap;html=1;fillColor=#ffe6cc;strokeColor=#d79b00;" parent="1" vertex="1">
          <mxGeometry x="550" y="734" width="100" height="60" as="geometry" />
        </mxCell>
        <mxCell id="FLTOR3fUIsVmwwGsozke-49" value="Bare metal/Private&amp;nbsp; cloud, Public cloud,Kubernetes" style="rounded=1;whiteSpace=wrap;html=1;fillColor=#d5e8d4;strokeColor=#82b366;" parent="1" vertex="1">
          <mxGeometry x="680" y="804" width="120" height="56" as="geometry" />
        </mxCell>
        <mxCell id="FLTOR3fUIsVmwwGsozke-54" value="Monitoring" style="rounded=1;whiteSpace=wrap;html=1;fillColor=#fff2cc;strokeColor=#d6b656;" parent="1" vertex="1">
          <mxGeometry x="880" y="270" width="120" height="100" as="geometry" />
        </mxCell>
        <mxCell id="FLTOR3fUIsVmwwGsozke-55" value="Prometheus/&lt;br&gt;Graphana" style="rounded=1;whiteSpace=wrap;html=1;fillColor=#d5e8d4;strokeColor=#82b366;" parent="1" vertex="1">
          <mxGeometry x="1010" y="340" width="120" height="30" as="geometry" />
        </mxCell>
        <mxCell id="FLTOR3fUIsVmwwGsozke-56" value="EFK/OpenSearch" style="rounded=1;whiteSpace=wrap;html=1;fillColor=#d5e8d4;strokeColor=#82b366;" parent="1" vertex="1">
          <mxGeometry x="1010" y="570" width="120" height="30" as="geometry" />
        </mxCell>
        <mxCell id="FLTOR3fUIsVmwwGsozke-57" value="Zipkin/Jaeger" style="rounded=1;whiteSpace=wrap;html=1;fillColor=#d5e8d4;strokeColor=#82b366;" parent="1" vertex="1">
          <mxGeometry x="1010" y="455" width="120" height="30" as="geometry" />
        </mxCell>
        <mxCell id="oeXIbe9gHz6qyUcopNLy-5" value="Production stage" style="rounded=1;whiteSpace=wrap;html=1;fillColor=#f8cecc;strokeColor=#b85450;verticalAlign=top;" parent="1" vertex="1">
          <mxGeometry x="540" y="814" width="120" height="100" as="geometry" />
        </mxCell>
        <mxCell id="oeXIbe9gHz6qyUcopNLy-6" value="Configure environment&lt;br&gt;Deploy binaries" style="rounded=1;whiteSpace=wrap;html=1;fillColor=#ffe6cc;strokeColor=#d79b00;" parent="1" vertex="1">
          <mxGeometry x="550" y="844" width="100" height="60" as="geometry" />
        </mxCell>
        <mxCell id="oeXIbe9gHz6qyUcopNLy-7" value="Docker Compose" style="rounded=1;whiteSpace=wrap;html=1;fillColor=#d5e8d4;strokeColor=#82b366;" parent="1" vertex="1">
          <mxGeometry x="670" y="435" width="120" height="35" as="geometry" />
        </mxCell>
        <mxCell id="oeXIbe9gHz6qyUcopNLy-19" value="Pip" style="rounded=1;whiteSpace=wrap;html=1;fillColor=#d5e8d4;strokeColor=#82b366;" parent="1" vertex="1">
          <mxGeometry x="110" y="601" width="120" height="40" as="geometry" />
        </mxCell>
        <mxCell id="oeXIbe9gHz6qyUcopNLy-20" value="Pytest, Coverage" style="rounded=1;whiteSpace=wrap;html=1;fillColor=#d5e8d4;strokeColor=#82b366;" parent="1" vertex="1">
          <mxGeometry x="110" y="651" width="120" height="40" as="geometry" />
        </mxCell>
        <mxCell id="oeXIbe9gHz6qyUcopNLy-26" value="Tracing" style="rounded=1;whiteSpace=wrap;html=1;fillColor=#fff2cc;strokeColor=#d6b656;" parent="1" vertex="1">
          <mxGeometry x="880" y="385" width="120" height="100" as="geometry" />
        </mxCell>
        <mxCell id="oeXIbe9gHz6qyUcopNLy-27" value="Logging" style="rounded=1;whiteSpace=wrap;html=1;fillColor=#fff2cc;strokeColor=#d6b656;" parent="1" vertex="1">
          <mxGeometry x="880" y="500" width="120" height="100" as="geometry" />
        </mxCell>
        <mxCell id="Tjgu17ZUk7AZ-zzFZU_f-1" value="GitHub Packages" style="rounded=1;whiteSpace=wrap;html=1;fillColor=#d5e8d4;strokeColor=#82b366;" vertex="1" parent="1">
          <mxGeometry x="670" y="1030" width="120" height="40" as="geometry" />
        </mxCell>
        <mxCell id="Tjgu17ZUk7AZ-zzFZU_f-2" value="Ruff, Mypy, Bandit, Pylint, pre-commit" style="rounded=1;whiteSpace=wrap;html=1;fillColor=#d5e8d4;strokeColor=#82b366;" vertex="1" parent="1">
          <mxGeometry x="110" y="700" width="120" height="40" as="geometry" />
        </mxCell>
        <mxCell id="Tjgu17ZUk7AZ-zzFZU_f-3" value="Ansible, Terraform" style="rounded=1;whiteSpace=wrap;html=1;fillColor=#d5e8d4;strokeColor=#82b366;" vertex="1" parent="1">
          <mxGeometry x="680" y="734" width="120" height="56" as="geometry" />
        </mxCell>
        <mxCell id="Tjgu17ZUk7AZ-zzFZU_f-4" value="Documentation stage" style="rounded=1;whiteSpace=wrap;html=1;fillColor=#fff2cc;strokeColor=#d6b656;verticalAlign=top;" vertex="1" parent="1">
          <mxGeometry x="540" y="485" width="120" height="100" as="geometry" />
        </mxCell>
        <mxCell id="Tjgu17ZUk7AZ-zzFZU_f-5" value="Deploy documentation" style="rounded=1;whiteSpace=wrap;html=1;fillColor=#ffe6cc;strokeColor=#d79b00;" vertex="1" parent="1">
          <mxGeometry x="550" y="525" width="100" height="50" as="geometry" />
        </mxCell>
        <mxCell id="Tjgu17ZUk7AZ-zzFZU_f-6" value="GitHub Pages" style="rounded=1;whiteSpace=wrap;html=1;fillColor=#d5e8d4;strokeColor=#82b366;" vertex="1" parent="1">
          <mxGeometry x="670" y="520" width="120" height="35" as="geometry" />
        </mxCell>
        <mxCell id="Tjgu17ZUk7AZ-zzFZU_f-7" value="pdoc, MkDoc, PlantUML" style="rounded=1;whiteSpace=wrap;html=1;fillColor=#d5e8d4;strokeColor=#82b366;" vertex="1" parent="1">
          <mxGeometry x="110" y="804" width="120" height="40" as="geometry" />
        </mxCell>
        <mxCell id="Tjgu17ZUk7AZ-zzFZU_f-9" style="edgeStyle=orthogonalEdgeStyle;rounded=0;orthogonalLoop=1;jettySize=auto;html=1;fontSize=20;" edge="1" parent="1" target="Tjgu17ZUk7AZ-zzFZU_f-4">
          <mxGeometry relative="1" as="geometry">
            <mxPoint x="490" y="580" as="sourcePoint" />
            <mxPoint x="550" y="760" as="targetPoint" />
          </mxGeometry>
        </mxCell>
      </root>
    </mxGraphModel>
  </diagram>
</mxfile>
